<svg viewBox="0 0 24 24" fill="none" xmlns="http://www.w3.org/2000/svg">
<path d="M21.4354 2.58198C20.9353 2.0686 20.1982 1.76863 19.641 1.76863C18.941 1.76863 18.2573 2.02384 17.7441 2.5451L7.14771 13.3444C6.18524 14.3225 6.18524 15.9034 7.14771 16.8815C7.6322 17.3752 8.27218 17.6186 8.91419 17.6186C9.55417 17.6186 10.1941 17.3731 10.6807 16.8794L20.2605 7.1232C20.5516 6.82672 20.5516 6.34687 20.2605 6.05039C19.9695 5.75391 19.4965 5.75391 19.2054 6.05039L9.62767 15.8066C9.43859 15.9991 9.17248 16.0374 8.99532 16.0141C8.82869 15.9926 8.59969 15.8675 8.42875 15.6841C8.04944 15.2974 8.04944 14.7766 8.20306 14.6202L18.7997 3.82084C19.0305 3.58557 19.338 3.47055 19.641 3.47055C19.9272 3.47055 20.2237 3.57703 20.4414 3.79848C20.9109 4.27749 20.8938 4.96092 20.4179 5.4208L9.29053 16.758C8.50314 17.5585 8.11475 18.5562 8.11475 19.5539C8.11475 20.5516 8.46899 21.5706 9.20945 22.3243C10.7438 23.8871 13.2982 23.8317 14.7876 22.3158L22.2507 14.7118C22.5417 14.4153 22.5417 13.9355 22.2507 13.639C21.9597 13.3425 21.4867 13.3425 21.1956 13.639L13.7325 21.2429C12.8313 22.1606 11.2325 22.2031 10.263 21.2152C9.80213 20.7447 9.58447 20.1506 9.58447 19.5539C9.58447 18.9572 9.87682 18.3184 10.3441 17.8436L21.4715 6.50426C22.28 5.6802 22.3782 4.38183 21.7371 3.43566L21.4354 2.58198Z" fill="currentColor"/>
</svg>
